<svg viewBox="0 0 900 540" width="900" height="540" xmlns="http://www.w3.org/2000/svg" role="img">
<title>hybrid retrieval and reciprocal rank fusion</title>
<desc>Two paths share one Qdrant collection. The index path (run at setup, before the agent): repo Python files are chunked by AST into functions and classes, each chunk is embedded twice — a dense bge-small 384-dimension vector and a sparse bm25 vector — and upserted as one Qdrant point carrying both named vectors plus a payload of repo, path, symbol, and code. The query path (inside the search node, per changed field): the field name is embedded with the same two models, Qdrant is searched twice with a repo filter, and the two ranked lists are merged by reciprocal rank fusion, score of a document equals the sum over lists of one over k plus its rank, with k about 60, yielding the top-k candidate sites. RRF merges the lexical bm25 match and the semantic dense match by rank, so no score normalization is needed.</desc>
<style>
 text { font-family: system-ui, -apple-system, 'Segoe UI', Roboto, Helvetica, Arial, sans-serif; }
 .serif { font-family: Georgia, 'Times New Roman', serif; }
 .mono { font-family: ui-monospace, 'SF Mono', Menlo, Consolas, monospace; }
</style>
<defs>
 <marker id="a2" markerWidth="8" markerHeight="8" refX="6.5" refY="3.5" orient="auto"><path d="M0,0 L7,3.5 L0,7 Z" fill="#b3b1a8"/></marker>
</defs>

<text x="30" y="36" class="serif" font-size="20" font-weight="500" fill="#262624">hybrid retrieval + RRF</text>
<text x="30" y="57" font-size="12.5" fill="#6b6a66">how search finds the impacted call sites — the retrieval interviewers dig into</text>
<rect x="700" y="24" width="12" height="12" rx="3" fill="#eef2fb" stroke="#b9c9e8"/>
<text x="718" y="34" font-size="11" fill="#6b6a66">vector math</text>

<text x="30" y="92" font-size="11" font-weight="500" fill="#9a9994">① index — build the searchable memory (at setup, before the agent runs)</text>
<rect x="30" y="106" width="104" height="50" rx="8" fill="#f5f4f0" stroke="#e6e4de"/>
<text x="82" y="127" text-anchor="middle" font-size="12" font-weight="500" fill="#262624">repo .py</text>
<text x="82" y="143" text-anchor="middle" font-size="10" fill="#6b6a66">source files</text>
<rect x="156" y="106" width="146" height="50" rx="8" fill="#f5f4f0" stroke="#e6e4de"/>
<text x="229" y="127" text-anchor="middle" font-size="12.5" font-weight="500" fill="#262624">chunk_repo</text>
<text x="229" y="143" text-anchor="middle" font-size="10" fill="#6b6a66">AST: def / class</text>
<rect x="324" y="84" width="146" height="44" rx="8" fill="#eef2fb" stroke="#b9c9e8"/>
<text x="397" y="103" text-anchor="middle" font-size="12" font-weight="500" fill="#262624">dense embed</text>
<text x="397" y="118" text-anchor="middle" font-size="10" fill="#6b6a66">bge-small · 384-d</text>
<rect x="324" y="138" width="146" height="44" rx="8" fill="#eef2fb" stroke="#b9c9e8"/>
<text x="397" y="157" text-anchor="middle" font-size="12" font-weight="500" fill="#262624">sparse embed</text>
<text x="397" y="172" text-anchor="middle" font-size="10" fill="#6b6a66">bm25 · term wts</text>
<rect x="492" y="106" width="140" height="50" rx="8" fill="#f5f4f0" stroke="#e6e4de"/>
<text x="562" y="127" text-anchor="middle" font-size="12.5" font-weight="500" fill="#262624">upsert</text>
<text x="562" y="143" text-anchor="middle" font-size="10" fill="#6b6a66">vectors + payload</text>

<path d="M664,101 L664,177 A103,9 0 0 0 870,177 L870,101" fill="#ffffff" stroke="#b3b1a8"/>
<ellipse cx="767" cy="101" rx="103" ry="9" fill="#ffffff" stroke="#b3b1a8"/>
<text x="767" y="126" text-anchor="middle" font-size="13" font-weight="500" fill="#262624">Qdrant · code_chunks</text>
<text x="767" y="143" text-anchor="middle" font-size="9.5" fill="#6b6a66">point: id · { dense, sparse } · payload</text>
<text x="767" y="157" text-anchor="middle" font-size="9.5" fill="#6b6a66">{ repo, path, symbol, code }</text>

<line x1="134" y1="131" x2="154" y2="131" stroke="#b3b1a8" stroke-width="1.4" marker-end="url(#a2)"/>
<line x1="302" y1="121" x2="322" y2="107" stroke="#b3b1a8" stroke-width="1.4" marker-end="url(#a2)"/>
<line x1="302" y1="141" x2="322" y2="159" stroke="#b3b1a8" stroke-width="1.4" marker-end="url(#a2)"/>
<line x1="470" y1="106" x2="490" y2="122" stroke="#b3b1a8" stroke-width="1.4" marker-end="url(#a2)"/>
<line x1="470" y1="160" x2="490" y2="141" stroke="#b3b1a8" stroke-width="1.4" marker-end="url(#a2)"/>
<line x1="632" y1="131" x2="662" y2="140" stroke="#b3b1a8" stroke-width="1.4" marker-end="url(#a2)"/>

<line x1="397" y1="318" x2="700" y2="185" stroke="#b3b1a8" stroke-width="1.3" stroke-dasharray="4 3" marker-end="url(#a2)"/>
<text x="486" y="243" class="mono" font-size="9.5" fill="#9a9994">read · repo-filtered</text>

<text x="30" y="288" font-size="11" font-weight="500" fill="#9a9994">② query — per changed field, inside the search node</text>
<rect x="30" y="320" width="104" height="50" rx="8" fill="#f5f4f0" stroke="#e6e4de"/>
<text x="82" y="341" text-anchor="middle" font-size="12" font-weight="500" fill="#262624">query</text>
<text x="82" y="357" text-anchor="middle" font-size="10" fill="#6b6a66">field name str</text>
<rect x="156" y="298" width="146" height="44" rx="8" fill="#eef2fb" stroke="#b9c9e8"/>
<text x="229" y="317" text-anchor="middle" font-size="12" font-weight="500" fill="#262624">dense embed</text>
<text x="229" y="332" text-anchor="middle" font-size="10" fill="#6b6a66">same model</text>
<rect x="156" y="352" width="146" height="44" rx="8" fill="#eef2fb" stroke="#b9c9e8"/>
<text x="229" y="371" text-anchor="middle" font-size="12" font-weight="500" fill="#262624">sparse embed</text>
<text x="229" y="386" text-anchor="middle" font-size="10" fill="#6b6a66">same bm25</text>
<rect x="324" y="320" width="146" height="50" rx="8" fill="#f5f4f0" stroke="#e6e4de"/>
<text x="397" y="341" text-anchor="middle" font-size="12.5" font-weight="500" fill="#262624">Qdrant search</text>
<text x="397" y="357" text-anchor="middle" font-size="10" fill="#6b6a66">×2 · repo filter</text>
<rect x="628" y="320" width="150" height="50" rx="8" fill="#eef2fb" stroke="#b9c9e8"/>
<text x="703" y="341" text-anchor="middle" font-size="12.5" font-weight="500" fill="#262624">RRF fuse</text>
<text x="703" y="357" text-anchor="middle" font-size="10" fill="#6b6a66">rank-based merge</text>
<rect x="800" y="320" width="96" height="50" rx="8" fill="#f5f4f0" stroke="#e6e4de"/>
<text x="848" y="341" text-anchor="middle" font-size="12.5" font-weight="500" fill="#262624">top-k</text>
<text x="848" y="357" text-anchor="middle" font-size="10" fill="#6b6a66">→ sites</text>

<line x1="134" y1="333" x2="154" y2="321" stroke="#b3b1a8" stroke-width="1.4" marker-end="url(#a2)"/>
<line x1="134" y1="357" x2="154" y2="373" stroke="#b3b1a8" stroke-width="1.4" marker-end="url(#a2)"/>
<line x1="302" y1="320" x2="322" y2="335" stroke="#b3b1a8" stroke-width="1.4" marker-end="url(#a2)"/>
<line x1="302" y1="374" x2="322" y2="359" stroke="#b3b1a8" stroke-width="1.4" marker-end="url(#a2)"/>
<line x1="470" y1="345" x2="626" y2="345" stroke="#b3b1a8" stroke-width="1.5" marker-end="url(#a2)"/>
<text x="486" y="338" class="mono" font-size="9.5" fill="#9a9994">dense list + sparse list</text>
<line x1="778" y1="345" x2="798" y2="345" stroke="#b3b1a8" stroke-width="1.5" marker-end="url(#a2)"/>

<rect x="324" y="424" width="454" height="86" rx="8" fill="#f5f4f0" stroke="#e6e4de"/>
<text x="342" y="448" font-size="12.5" font-weight="500" fill="#262624">RRF — reciprocal rank fusion</text>
<text x="342" y="474" class="mono" font-size="13" fill="#3f6cc4">score(d) = Σ  1 / ( k + rank(d) )     ( k ≈ 60 )</text>
<text x="342" y="497" font-size="10" fill="#6b6a66">merges bm25 (exact field-name hit) + dense (semantic) by RANK — no score scaling</text>
</svg>
