<svg viewBox="0 0 900 828" width="900" height="828" xmlns="http://www.w3.org/2000/svg" role="img">
<title>data and service flow: schema change to verified pull request</title>
<desc>A trigger (GitHub webhook with HMAC verification, or the nexus CLI) calls resolve_drift, which extracts the before and after OpenAPI specs from git, indexes the code into Qdrant, and checks out a fix branch, then invokes the LangGraph agent. The agent is a StateGraph over a shared RefactorState: parse turns the two specs into a schema_diff via oasdiff; search turns the diff into candidate_sites using hybrid retrieval plus RRF against Qdrant; refactor turns the sites plus any previous error logs into SEARCH/REPLACE edits applied to a working copy via the LLM; verify runs mypy and pytest in an isolated /tmp copy and sets build_clean from their exit codes. A gate loops back to refactor with the failure logs until build_clean is true or the iteration budget is exhausted. On success resolve_drift commits, pushes, and opens a pull request via gh, then record_run writes one metrics row to SQLite.</desc>
<style>
 text { font-family: system-ui, -apple-system, 'Segoe UI', Roboto, Helvetica, Arial, sans-serif; }
 .serif { font-family: Georgia, 'Times New Roman', serif; }
 .mono { font-family: ui-monospace, 'SF Mono', Menlo, Consolas, monospace; }
</style>
<defs>
 <marker id="a" markerWidth="8" markerHeight="8" refX="6.5" refY="3.5" orient="auto"><path d="M0,0 L7,3.5 L0,7 Z" fill="#b3b1a8"/></marker>
 <marker id="ac" markerWidth="8" markerHeight="8" refX="6.5" refY="3.5" orient="auto"><path d="M0,0 L7,3.5 L0,7 Z" fill="#3f6cc4"/></marker>
 <marker id="ok" markerWidth="8" markerHeight="8" refX="6.5" refY="3.5" orient="auto"><path d="M0,0 L7,3.5 L0,7 Z" fill="#3a7d54"/></marker>
</defs>

<text x="30" y="36" class="serif" font-size="20" font-weight="500" fill="#262624">data &amp; service flow</text>
<text x="30" y="57" font-size="12.5" fill="#6b6a66">a schema change becomes a verified PR — the path data takes through every component</text>

<rect x="590" y="24" width="12" height="12" rx="3" fill="#eef2fb" stroke="#b9c9e8"/>
<text x="608" y="34" font-size="11" fill="#6b6a66">graph node</text>
<rect x="700" y="24" width="12" height="12" rx="3" fill="#f5f4f0" stroke="#e6e4de"/>
<text x="718" y="34" font-size="11" fill="#6b6a66">service step</text>
<path d="M818,26 L818,35 A6,2 0 0 0 830,35 L830,26" fill="#ffffff" stroke="#b3b1a8"/>
<ellipse cx="824" cy="26" rx="6" ry="2" fill="#ffffff" stroke="#b3b1a8"/>
<text x="836" y="34" font-size="11" fill="#6b6a66">data store</text>

<rect x="155" y="226" width="350" height="430" rx="12" fill="none" stroke="#b9c9e8" stroke-dasharray="5 4"/>
<text x="167" y="600" font-size="11" fill="#3f6cc4" transform="rotate(-90 167 600)">LangGraph agent · StateGraph(RefactorState)</text>

<rect x="205" y="82" width="285" height="50" rx="8" fill="#f5f4f0" stroke="#e6e4de"/>
<text x="347" y="102" text-anchor="middle" font-size="13" font-weight="500" fill="#262624">trigger</text>
<text x="347" y="119" text-anchor="middle" font-size="10.5" fill="#6b6a66">webhook (HMAC · ack · clone)   or   nexus resolve</text>

<rect x="205" y="150" width="285" height="64" rx="8" fill="#f5f4f0" stroke="#e6e4de"/>
<text x="347" y="170" text-anchor="middle" font-size="13" font-weight="500" fill="#262624">resolve_drift · setup</text>
<text x="347" y="187" text-anchor="middle" font-size="10.5" fill="#6b6a66">specs: git base ↔ working tree</text>
<text x="347" y="202" text-anchor="middle" font-size="10.5" fill="#6b6a66">index code → Qdrant · checkout -B branch</text>

<rect x="205" y="240" width="285" height="54" rx="8" fill="#eef2fb" stroke="#b9c9e8"/>
<text x="347" y="262" text-anchor="middle" font-size="13.5" font-weight="500" fill="#262624">parse</text>
<text x="347" y="279" text-anchor="middle" font-size="10.5" fill="#6b6a66">openapi before + after → schema_diff  (oasdiff)</text>

<rect x="205" y="330" width="285" height="54" rx="8" fill="#eef2fb" stroke="#b9c9e8"/>
<text x="347" y="352" text-anchor="middle" font-size="13.5" font-weight="500" fill="#262624">search</text>
<text x="347" y="369" text-anchor="middle" font-size="10.5" fill="#6b6a66">schema_diff → candidate_sites  (hybrid + RRF)</text>

<rect x="205" y="420" width="285" height="54" rx="8" fill="#eef2fb" stroke="#b9c9e8"/>
<text x="347" y="442" text-anchor="middle" font-size="13.5" font-weight="500" fill="#262624">refactor</text>
<text x="347" y="459" text-anchor="middle" font-size="10.5" fill="#6b6a66">sites + prev logs → SEARCH/REPLACE → patch</text>

<rect x="205" y="510" width="285" height="54" rx="8" fill="#eef2fb" stroke="#b9c9e8"/>
<text x="347" y="532" text-anchor="middle" font-size="13.5" font-weight="500" fill="#262624">verify</text>
<text x="347" y="549" text-anchor="middle" font-size="10.5" fill="#6b6a66">mypy + pytest exit codes → build_clean</text>

<polygon points="347,584 413,614 347,644 281,614" fill="#ffffff" stroke="#b3b1a8" stroke-width="1.5"/>
<text x="347" y="610" text-anchor="middle" font-size="11" font-weight="500" fill="#262624">build</text>
<text x="347" y="624" text-anchor="middle" font-size="11" font-weight="500" fill="#262624">clean?</text>

<rect x="205" y="672" width="285" height="56" rx="8" fill="#f5f4f0" stroke="#e6e4de"/>
<text x="347" y="693" text-anchor="middle" font-size="13" font-weight="500" fill="#262624">resolve_drift · finish</text>
<text x="347" y="710" text-anchor="middle" font-size="10.5" fill="#6b6a66">if healed: git diff → commit → push → gh pr create</text>

<rect x="205" y="746" width="285" height="54" rx="8" fill="#f5f4f0" stroke="#e6e4de"/>
<text x="347" y="767" text-anchor="middle" font-size="13" font-weight="500" fill="#262624">record_run</text>
<text x="347" y="784" text-anchor="middle" font-size="10.5" fill="#6b6a66">healed · iters · latency · tokens · recall · pr_url</text>

<line x1="347" y1="132" x2="347" y2="149" stroke="#b3b1a8" stroke-width="1.5" marker-end="url(#a)"/>
<line x1="347" y1="214" x2="347" y2="239" stroke="#b3b1a8" stroke-width="1.5" marker-end="url(#a)"/>
<line x1="347" y1="294" x2="347" y2="329" stroke="#b3b1a8" stroke-width="1.5" marker-end="url(#a)"/>
<line x1="347" y1="384" x2="347" y2="419" stroke="#b3b1a8" stroke-width="1.5" marker-end="url(#a)"/>
<line x1="347" y1="474" x2="347" y2="509" stroke="#b3b1a8" stroke-width="1.5" marker-end="url(#a)"/>
<line x1="347" y1="564" x2="347" y2="583" stroke="#b3b1a8" stroke-width="1.5" marker-end="url(#a)"/>
<line x1="347" y1="644" x2="347" y2="671" stroke="#3a7d54" stroke-width="1.5" marker-end="url(#ok)"/>
<line x1="347" y1="728" x2="347" y2="745" stroke="#b3b1a8" stroke-width="1.5" marker-end="url(#a)"/>

<text x="355" y="315" class="mono" font-size="9.5" fill="#9a9994">schema_diff</text>
<text x="355" y="405" class="mono" font-size="9.5" fill="#9a9994">candidate_sites[]</text>
<text x="355" y="495" class="mono" font-size="9.5" fill="#9a9994">patched + diff</text>
<text x="355" y="577" class="mono" font-size="9.5" fill="#9a9994">build_clean</text>
<text x="355" y="662" class="mono" font-size="9.5" fill="#3a7d54">✓ healed</text>

<polyline points="281,614 190,614 190,447 204,447" fill="none" stroke="#3f6cc4" stroke-width="1.5" marker-end="url(#ac)"/>
<text x="184" y="530" font-size="10" fill="#3f6cc4" transform="rotate(-90 184 530)">retry ≤ max · logs → prompt · iter++</text>

<path d="M652,309 L652,393 A100,9 0 0 0 852,393 L852,309" fill="#ffffff" stroke="#b3b1a8"/>
<ellipse cx="752" cy="309" rx="100" ry="9" fill="#ffffff" stroke="#b3b1a8"/>
<text x="752" y="332" text-anchor="middle" font-size="13" font-weight="500" fill="#262624">Qdrant</text>
<text x="752" y="350" text-anchor="middle" font-size="9.5" fill="#6b6a66">code_chunks · named dense + sparse vectors</text>
<text x="752" y="364" text-anchor="middle" font-size="9.5" fill="#6b6a66">payload { repo, path, symbol, code }</text>

<rect x="652" y="420" width="200" height="54" rx="8" fill="#f5f4f0" stroke="#e6e4de"/>
<text x="752" y="442" text-anchor="middle" font-size="12.5" font-weight="500" fill="#262624">LLM · DeepSeek / Ollama</text>
<text x="752" y="459" text-anchor="middle" font-size="9.5" fill="#6b6a66">OpenAI-compatible chat</text>

<rect x="652" y="510" width="200" height="54" rx="8" fill="#f5f4f0" stroke="#e6e4de"/>
<text x="752" y="532" text-anchor="middle" font-size="12.5" font-weight="500" fill="#262624">/tmp working copy</text>
<text x="752" y="549" text-anchor="middle" font-size="9.5" fill="#6b6a66">isolated mypy + pytest</text>

<path d="M652,681 L652,719 A100,9 0 0 0 852,719 L852,681" fill="#ffffff" stroke="#b3b1a8"/>
<ellipse cx="752" cy="681" rx="100" ry="9" fill="#ffffff" stroke="#b3b1a8"/>
<text x="752" y="700" text-anchor="middle" font-size="12.5" font-weight="500" fill="#262624">git + GitHub</text>
<text x="752" y="716" text-anchor="middle" font-size="9.5" fill="#6b6a66">fix branch · commit · PR (gh)</text>

<path d="M652,753 L652,791 A100,9 0 0 0 852,791 L852,753" fill="#ffffff" stroke="#b3b1a8"/>
<ellipse cx="752" cy="753" rx="100" ry="9" fill="#ffffff" stroke="#b3b1a8"/>
<text x="752" y="772" text-anchor="middle" font-size="12.5" font-weight="500" fill="#262624">SQLite → Postgres</text>
<text x="752" y="788" text-anchor="middle" font-size="9.5" fill="#6b6a66">metrics store · 1 row / run</text>

<line x1="490" y1="184" x2="650" y2="316" stroke="#b3b1a8" stroke-width="1.3" marker-end="url(#a)"/>
<text x="497" y="240" class="mono" font-size="9.5" fill="#9a9994">upsert (index)</text>
<line x1="490" y1="357" x2="650" y2="352" stroke="#b3b1a8" stroke-width="1.3" marker-end="url(#a)"/>
<text x="512" y="345" class="mono" font-size="9.5" fill="#9a9994">2 searches → RRF</text>
<line x1="490" y1="447" x2="650" y2="447" stroke="#b3b1a8" stroke-width="1.3" marker-end="url(#a)"/>
<text x="516" y="440" class="mono" font-size="9.5" fill="#9a9994">prompt ⇄ blocks</text>
<line x1="490" y1="537" x2="650" y2="537" stroke="#b3b1a8" stroke-width="1.3" marker-end="url(#a)"/>
<text x="520" y="530" class="mono" font-size="9.5" fill="#9a9994">run → exit codes</text>
<line x1="490" y1="700" x2="650" y2="700" stroke="#3a7d54" stroke-width="1.3" marker-end="url(#ok)"/>
<text x="523" y="693" class="mono" font-size="9.5" fill="#9a9994">gh pr create</text>
<line x1="490" y1="773" x2="650" y2="773" stroke="#b3b1a8" stroke-width="1.3" marker-end="url(#a)"/>
<text x="548" y="766" class="mono" font-size="9.5" fill="#9a9994">insert row</text>

<text x="30" y="818" font-size="10.5" fill="#9a9994">RefactorState is a shared TypedDict; each node returns a partial update. history &amp; token counts use +-reducers, so they accumulate across every loop iteration.</text>
</svg>
